<?xml version="1.0" encoding="utf-8"?>
<!-- Generator: Adobe Illustrator 25.4.1, SVG Export Plug-In . SVG Version: 6.00 Build 0)  -->
<svg version="1.1" id="Layer_1" xmlns="http://www.w3.org/2000/svg" xmlns:xlink="http://www.w3.org/1999/xlink" x="0px" y="0px"
	 viewBox="0 0 75 75.1" style="enable-background:new 0 0 75 75.1;" xml:space="preserve">
<style type="text/css">
	.st0{fill:none;stroke:#0061B8;stroke-width:3.5;stroke-linecap:round;stroke-miterlimit:10;}
	.st1{fill:none;stroke:#0061B8;stroke-width:3.5;stroke-miterlimit:10;}
</style>
<g transform="translate(-3108.108 -797.332)">
	<path class="st0" d="M3136.9,846.3c1.1-1.1,1.9-2.6,2.3-4.1c0.1-0.3,0.2-0.7,0.3-1l0-0.2c0.2-0.7,0.6-1.3,1.2-1.7l4.1-3.1
		c2.2-1.7,2.2-5,1.1-7.1c-1-1.9-3.3-1.4-4.4-0.5l-15.5,13"/>
	<path class="st1" d="M3160.7,870.4c3.3,0,5.7-2.8,4.8-5.5l-1.3-4.1c-1.2-3.9-1.2-8,0.1-11.9l0.5-1.4c0.5-1.5,0.8-3,1-4.6l0.5-5.5
		l-0.1-0.9c-0.4-2.6-2.4-4.7-5.1-5.9c-0.6-0.2-1.1-0.6-1.4-1.2l0,0c-1.3-3-4.2-5.1-7.4-5.4l0,0c-0.6-0.1-1.2-0.3-1.6-0.7l-0.9-0.8
		c-2.7-2.2-6.4-2.6-9.5-1l-2.4,1.3c-0.2,0.1-0.5,0.1-0.6-0.1c0,0-0.1-0.1-0.1-0.2c-0.3-3-1.1-8.1-1.3-11c-0.4-5.7-0.5-6.6-1.7-9.5
		c-1.6-4-5.4-3.7-6.9-0.7c-1,2.2-1.5,4.6-1.4,7v31.6l-0.8,4c-0.4,2-0.1,4,0.8,5.8l3.1,6.6c0.9,1.9,1.2,4.1,0.7,6.1l-0.8,2.7
		c-0.9,2.8,1.6,5.5,4.9,5.5L3160.7,870.4z"/>
	<line class="st0" x1="3137.2" y1="821.6" x2="3137.2" y2="831.2"/>
	<g transform="translate(3136.479 851.608)">
		<line class="st1" x1="18.1" y1="0" x2="18.2" y2="12.7"/>
		<path class="st1" d="M15.8,3.8"/>
		<line class="st1" x1="15.1" y1="12.5" x2="21.4" y2="12.5"/>
		<line class="st1" x1="14.9" y1="3.6" x2="18" y2="3.3"/>
	</g>
	<g transform="translate(3120.083 851.172)">
		<g transform="translate(0 4.459)">
			<line class="st1" x1="14.9" y1="0" x2="28" y2="0"/>
			<line class="st1" x1="14.9" y1="5.3" x2="28" y2="5.3"/>
		</g>
		<g transform="translate(3.845)">
			<line class="st1" x1="20.2" y1="0" x2="20.2" y2="13.8"/>
			<line class="st1" x1="14.9" y1="0" x2="14.9" y2="13.8"/>
		</g>
	</g>
	<path class="st0" d="M3143.7,837.1c-0.5,1.3-0.7,2.8-0.5,4.2c0.4,1.9,3.1,2.9,5.3,1c1.7-1.5,1.8-2,1.8-2s0.5-1.4,0.3-0.8
		c-0.3,1.3-0.3,2.6-0.1,3.9c1,3.4,4.4,2.5,6.2,0.6c0,0,0.3,0.4,0.9-0.6s0.7-2.1,0.4-0.8c-0.2,0.9-0.3,1.9-0.3,2.9
		c0.2,4.5,4.4,4.3,6.4,0.8c1.5-2.6,2.1-7.7,2.1-7.7"/>
	<line class="st0" x1="3153" y1="833.4" x2="3149.6" y2="842"/>
	<line class="st0" x1="3159.8" y1="836.8" x2="3157.2" y2="844.9"/>
</g>
</svg>
